<svg xmlns="http://www.w3.org/2000/svg" width="30.849" height="25.07" viewBox="0 0 30.849 25.07">
  <path id="Icon_metro-twitter" data-name="Icon metro-twitter" d="M33.419,7.785a12.654,12.654,0,0,1-3.635,1,6.348,6.348,0,0,0,2.783-3.5,12.67,12.67,0,0,1-4.019,1.536,6.335,6.335,0,0,0-10.785,5.773A17.968,17.968,0,0,1,4.718,5.976a6.336,6.336,0,0,0,1.959,8.45,6.3,6.3,0,0,1-2.867-.792c0,.026,0,.053,0,.08a6.333,6.333,0,0,0,5.077,6.206,6.339,6.339,0,0,1-2.858.108,6.335,6.335,0,0,0,5.912,4.4,12.7,12.7,0,0,1-7.86,2.709,12.836,12.836,0,0,1-1.51-.089,17.913,17.913,0,0,0,9.7,2.844c11.641,0,18.007-9.644,18.007-18.007q0-.412-.018-.819a12.857,12.857,0,0,0,3.158-3.276Z" transform="translate(-2.571 -4.817)" fill="#fff"/>
</svg>
