<svg id="bfj_logo" xmlns="http://www.w3.org/2000/svg" width="52" height="105" viewBox="0 0 52 105">
  <rect id="長方形_3" data-name="長方形 3" width="52" height="105" fill="none" opacity="0"/>
  <path id="BFJ_Logo-2" data-name="BFJ_Logo" d="M1863.079,1483.44l6.276-6.276s-.016-5.934-.032-7.137c-.241-1.523-1.083-.732-1.083-.732s-24.232,24.228-27.016,27.08c-3.274,3.954-3.186,12.138-3.186,12.138s14.131-14.174,15.9-15.9c2.7-1.6,2.868,2.325,2.868,2.325v7.327l-12.521,12.521s-.013-2.9,0-4.429c-.235-1.679-1.083-.732-1.083-.732l-5.129,5.129V1539.8l15.643,15.643,15.61-15.611v-6.308l-15.643,15.643-3.122-3.122,18.8-18.8v-25.073l-6.276,6.276v7.073l-1.784,2.485v11.119l-13.827,13.827-3.154-3.154,12.521-12.521v-18.8l12.521-12.521v-6.245l-6.276,6.276V1483.44Zm-12.52,43.87-6.212,6.213-.063-12.521,3.154-3.154s3.1-2.4,3.122,3.25S1850.559,1527.31,1850.559,1527.31Z" transform="translate(-1828.037 -1460.09)" fill="#2f2f2f" fill-rule="evenodd"/>
</svg>
<svg xmlns="http://www.w3.org/2000/svg" viewBox="0 0 4096 4096"><path d="M2173.8 1661.5l84.15-84.15s-.21-79.57-.43-95.69c-3.23-20.42-14.52-9.82-14.52-9.82s-324.91 324.85-362.24 363.1c-43.9 53.02-42.72 162.75-42.72 162.75s189.47-190.05 213.16-213.16c36.22-21.41 38.45 31.18 38.45 31.18v98.25l-167.88 167.88s-.18-38.84 0-59.38c-3.15-22.52-14.52-9.82-14.52-9.82l-68.77 68.77v335.76l209.74 209.74 209.31-209.31v-84.58l-209.74 209.74-41.86-41.86 252.03-252.03v-336.19l-84.15 84.15v94.83l-23.92 33.32v149.08l-185.39 185.39-42.29-42.29 167.88-167.88v-252.03l167.88-167.88v-83.73l-84.15 84.15V1661.5zm-167.87 588.22l-83.3 83.3-.85-167.88 42.29-42.29s41.62-32.22 41.86 43.57c.24 75.79 0 83.3 0 83.3z" fill-rule="evenodd" clip-rule="evenodd"/></svg>
