<?xml version="1.0" encoding="utf-8"?>
<!-- Generator: Adobe Illustrator 25.4.1, SVG Export Plug-In . SVG Version: 6.00 Build 0)  -->
<svg version="1.1" id="レイヤー_1" xmlns="http://www.w3.org/2000/svg" xmlns:xlink="http://www.w3.org/1999/xlink" x="0px"
	 y="0px" viewBox="0 0 4096 4096" style="enable-background:new 0 0 4096 4096;" xml:space="preserve">
<style type="text/css">
	.st0{fill-rule:evenodd;clip-rule:evenodd;}
</style>
<path class="st0" d="M2173.8,1661.5l84.15-84.15c0,0-0.21-79.57-0.43-95.69c-3.23-20.42-14.52-9.82-14.52-9.82
	s-324.91,324.85-362.24,363.1c-43.9,53.02-42.72,162.75-42.72,162.75s189.47-190.05,213.16-213.16
	c36.22-21.41,38.45,31.18,38.45,31.18v98.25l-167.88,167.88c0,0-0.18-38.84,0-59.38c-3.15-22.52-14.52-9.82-14.52-9.82l-68.77,68.77
	v335.76l209.74,209.74l209.31-209.31v-84.58l-209.74,209.74l-41.86-41.86l252.03-252.03v-336.19l-84.15,84.15v94.83l-23.92,33.32
	v149.08l-185.39,185.39l-42.29-42.29l167.88-167.88v-252.03l167.88-167.88v-83.73l-84.15,84.15V1661.5z M2005.93,2249.72l-83.3,83.3
	l-0.85-167.88l42.29-42.29c0,0,41.62-32.22,41.86,43.57C2006.17,2242.21,2005.93,2249.72,2005.93,2249.72z"/>
</svg>
