<svg xmlns="http://www.w3.org/2000/svg" width="52" height="105"><path data-name="BFJ_Logo" d="M35.042 23.35l6.276-6.276s-.016-5.934-.032-7.137c-.241-1.523-1.083-.732-1.083-.732s-24.232 24.228-27.016 27.08c-3.274 3.954-3.186 12.138-3.186 12.138s14.131-14.174 15.9-15.9c2.7-1.6 2.868 2.325 2.868 2.325v7.327L16.248 54.696s-.013-2.9 0-4.429c-.235-1.679-1.083-.732-1.083-.732l-5.129 5.129V79.71l15.643 15.643 15.61-15.611v-6.308L25.646 89.077l-3.122-3.122 18.8-18.8V42.082l-6.276 6.276v7.073l-1.784 2.485v11.119L19.437 82.862l-3.154-3.154 12.521-12.521v-18.8l12.521-12.521v-6.245l-6.276 6.276V23.35zm-12.52 43.87l-6.212 6.213-.063-12.521 3.154-3.154s3.1-2.4 3.122 3.25-.001 6.212-.001 6.212z" fill="#2f2f2f" fill-rule="evenodd"/></svg>