<svg xmlns="http://www.w3.org/2000/svg" viewBox="0 0 4096 4096"><path d="M2173.8 1661.5l84.15-84.15s-.21-79.57-.43-95.69c-3.23-20.42-14.52-9.82-14.52-9.82s-324.91 324.85-362.24 363.1c-43.9 53.02-42.72 162.75-42.72 162.75s189.47-190.05 213.16-213.16c36.22-21.41 38.45 31.18 38.45 31.18v98.25l-167.88 167.88s-.18-38.84 0-59.38c-3.15-22.52-14.52-9.82-14.52-9.82l-68.77 68.77v335.76l209.74 209.74 209.31-209.31v-84.58l-209.74 209.74-41.86-41.86 252.03-252.03v-336.19l-84.15 84.15v94.83l-23.92 33.32v149.08l-185.39 185.39-42.29-42.29 167.88-167.88v-252.03l167.88-167.88v-83.73l-84.15 84.15V1661.5zm-167.87 588.22l-83.3 83.3-.85-167.88 42.29-42.29s41.62-32.22 41.86 43.57c.24 75.79 0 83.3 0 83.3z" fill-rule="evenodd" clip-rule="evenodd"/></svg>