<svg xmlns="http://www.w3.org/2000/svg" width="32.349" height="31.541"><path data-name="Icon awesome-github" d="M10.82 25.396c0 .13-.15.235-.339.235-.215.02-.365-.085-.365-.235 0-.13.15-.235.339-.235.195-.024.365.085.365.235zm-2.028-.293c-.046.13.085.28.28.32a.306.306 0 00.4-.13c.039-.13-.085-.28-.28-.339a.335.335 0 00-.4.148zm2.883-.111c-.189.046-.32.17-.3.32.02.13.189.215.385.17s.32-.17.3-.3-.197-.21-.386-.19zM15.966 0A15.639 15.639 0 000 15.913a16.351 16.351 0 0011.055 15.6c.835.15 1.128-.365 1.128-.789 0-.4-.02-2.635-.02-4 0 0-4.565.978-5.524-1.944 0 0-.744-1.9-1.813-2.387 0 0-1.494-1.024.1-1a3.443 3.443 0 012.517 1.683 3.448 3.448 0 004.757 1.355 3.625 3.625 0 011.044-2.2c-3.646-.4-7.324-.933-7.324-7.207a4.943 4.943 0 011.539-3.841 6.162 6.162 0 01.17-4.428c1.363-.424 4.5 1.761 4.5 1.761a15.407 15.407 0 018.192 0s3.137-2.191 4.5-1.761a6.159 6.159 0 01.17 4.428 5.07 5.07 0 011.683 3.841c0 6.294-3.841 6.8-7.487 7.207a3.857 3.857 0 011.113 3.028c0 2.2-.02 4.918-.02 5.452 0 .424.3.939 1.128.789a16.2 16.2 0 0010.941-15.587C32.349 6.867 25.012 0 15.966 0zM6.339 22.494c-.085.065-.065.215.046.339.1.1.254.15.339.065.085-.065.065-.215-.046-.339-.104-.104-.254-.15-.339-.065zm-.7-.528c-.046.085.02.189.15.254a.194.194 0 00.28-.046c.046-.085-.02-.189-.15-.254-.134-.039-.238-.02-.284.045zm2.109 2.321c-.1.085-.065.28.085.4.15.15.339.17.424.065.085-.085.046-.28-.085-.4-.143-.15-.339-.169-.424-.065zM7 23.328c-.1.065-.1.235 0 .385s.28.215.365.15a.3.3 0 000-.4c-.087-.154-.256-.219-.365-.135z" fill="#fff"/></svg>