<svg xmlns="http://www.w3.org/2000/svg" width="30.849" height="25.07"><path data-name="Icon metro-twitter" d="M30.848 2.968a12.654 12.654 0 01-3.635 1 6.348 6.348 0 002.783-3.5 12.67 12.67 0 01-4.019 1.536 6.335 6.335 0 00-10.785 5.773A17.968 17.968 0 012.147 1.159a6.336 6.336 0 001.959 8.45 6.3 6.3 0 01-2.867-.792v.08a6.333 6.333 0 005.077 6.206 6.339 6.339 0 01-2.858.108 6.335 6.335 0 005.912 4.4 12.7 12.7 0 01-7.86 2.709A12.836 12.836 0 010 22.231a17.913 17.913 0 009.7 2.844c11.641 0 18.007-9.644 18.007-18.007q0-.412-.018-.819a12.857 12.857 0 003.158-3.276z" fill="#fff"/></svg>