<svg xmlns="http://www.w3.org/2000/svg" width="30.849" height="30.849"><path data-name="Icon metro-instagram" d="M25.729 0H5.121A5.136 5.136 0 000 5.121v20.606a5.136 5.136 0 005.121 5.121h20.608a5.136 5.136 0 005.121-5.121V5.121A5.136 5.136 0 0025.729 0zM9.877 13.5h11.1a5.874 5.874 0 11-11.1 0zm17.117 0v11.564a1.934 1.934 0 01-1.928 1.928H5.784a1.934 1.934 0 01-1.928-1.928V13.496h3.016a8.767 8.767 0 1017.1 0h3.016zm0-6.75a.967.967 0 01-.964.964H24.1a.967.967 0 01-.964-.964V4.82a.967.967 0 01.964-.964h1.929a.967.967 0 01.964.964z" fill="#fff"/></svg>