<svg xmlns="http://www.w3.org/2000/svg" width="29.995" height="21.09"><path data-name="Icon awesome-youtube" d="M29.368 3.3A3.769 3.769 0 0026.716.631C24.377 0 14.997 0 14.997 0S5.617 0 3.278.631A3.769 3.769 0 00.627 3.3 39.537 39.537 0 000 10.566a39.537 39.537 0 00.627 7.266 3.713 3.713 0 002.652 2.626c2.339.631 11.719.631 11.719.631s9.38 0 11.719-.631a3.713 3.713 0 002.652-2.626 39.537 39.537 0 00.627-7.266 39.537 39.537 0 00-.628-7.266zM11.93 15.026v-8.92l7.84 4.46-7.84 4.46z" fill="#fff"/></svg>